<?xml version="1.0" encoding="UTF-8"?>
<svg width="400" height="400" viewBox="0 0 400 400" fill="none" xmlns="http://www.w3.org/2000/svg">
  <g filter="url(#filter0_d)">
    <path d="M200 50C117.157 50 50 117.157 50 200C50 282.843 117.157 350 200 350C282.843 350 350 282.843 350 200C350 117.157 282.843 50 200 50ZM200 320C133.726 320 80 266.274 80 200C80 133.726 133.726 80 200 80C266.274 80 320 133.726 320 200C320 266.274 266.274 320 200 320Z" fill="url(#paint0_linear)"/>
    <path d="M200 80V200L280 280C303.137 256.863 320 230.137 320 200C320 133.726 266.274 80 200 80Z" fill="#FB923C"/>
    <path d="M200 200L120 120C96.8629 143.137 80 169.863 80 200C80 266.274 133.726 320 200 320V200Z" fill="#E879F9"/>
    <path d="M280 280L200 200V320C266.274 320 320 266.274 320 200C320 230.137 303.137 256.863 280 280Z" fill="#F43F5E"/>
  </g>
  <defs>
    <filter id="filter0_d" x="46" y="50" width="308" height="308" filterUnits="userSpaceOnUse" color-interpolation-filters="sRGB">
      <feFlood flood-opacity="0" result="BackgroundImageFix"/>
      <feColorMatrix in="SourceAlpha" type="matrix" values="0 0 0 0 0 0 0 0 0 0 0 0 0 0 0 0 0 0 127 0"/>
      <feOffset dy="4"/>
      <feGaussianBlur stdDeviation="2"/>
      <feColorMatrix type="matrix" values="0 0 0 0 0 0 0 0 0 0 0 0 0 0 0 0 0 0 0.25 0"/>
      <feBlend mode="normal" in2="BackgroundImageFix" result="effect1_dropShadow"/>
      <feBlend mode="normal" in="SourceGraphic" in2="effect1_dropShadow" result="shape"/>
    </filter>
    <linearGradient id="paint0_linear" x1="50" y1="50" x2="350" y2="350" gradientUnits="userSpaceOnUse">
      <stop stop-color="#FB923C"/>
      <stop offset="1" stop-color="#F43F5E"/>
    </linearGradient>
  </defs>
</svg> 